<svg id="Layer_1" xmlns="http://www.w3.org/2000/svg" viewBox="0 0 256 256"><path d="M154.71,97c.46,2.59,2.5,4.62,5.1,5.05l14.05,2.34,31.71-46.17c4.57-6.65-3.62-14.62-10.14-9.87l-43.68,31.83,2.97,16.82Z" style="fill:#8d8fc6;"/><path d="M173.86,151.62l-14.05,2.34c-2.6.43-4.64,2.45-5.1,5.05l-2.97,16.82,43.68,31.83c6.52,4.75,14.71-3.21,10.14-9.87l-31.71-46.17Z" style="fill:#eb407a;"/><path d="M82.14,104.38l14.05-2.34c2.6-.43,4.64-2.45,5.1-5.05l2.97-16.82-43.68-31.83c-6.52-4.75-14.71,3.21-10.14,9.87l31.71,46.17Z" style="fill:#579fd6;"/><path d="M101.29,159c-.46-2.59-2.5-4.62-5.1-5.05l-14.05-2.34-31.71,46.17c-4.57,6.65,3.62,14.62,10.14,9.87l43.68-31.83-2.97-16.82Z" style="fill:#f27046;"/><path d="M107.33,104l15.94-90.32c.93-5.3,8.53-5.3,9.47,0l15.94,90.32c.35,2.01,1.94,3.57,3.95,3.91l92.24,15.35c5.36.89,5.36,8.59,0,9.49l-92.24,15.35c-2.01.33-3.59,1.9-3.95,3.91l-15.94,90.32c-.93,5.3-8.53,5.3-9.47,0l-15.94-90.32c-.35-2.01-1.94-3.57-3.95-3.91l-92.24-15.35c-5.36-.89-5.36-8.59,0-9.49l92.24-15.35c2.01-.33,3.59-1.9,3.95-3.91Z" style="fill:#572aff;"/></svg>